<?xml version="1.0" encoding="UTF-8"?>
<svg xmlns="http://www.w3.org/2000/svg" xmlns:xlink="http://www.w3.org/1999/xlink" width="900px" height="220px" viewBox="0 0 900 220" version="1.1">
<g id="surface1">
<path style=" stroke:none;fill-rule:evenodd;fill:rgb(89.019608%,58.039218%,23.137255%);fill-opacity:1;" d="M 273.863281 97.8125 C 269.90625 95.71875 265.308594 93.808594 260.1875 92.09375 C 258.460938 91.402344 255.273438 91.195312 252.75 91.640625 C 249.996094 92.125 249.050781 93.203125 250.640625 94.042969 C 250.902344 94.179688 251.210938 94.300781 251.554688 94.40625 C 256.195312 95.953125 260.355469 97.675781 263.929688 99.566406 C 277.109375 106.539062 279.792969 114.492188 273.46875 121.699219 C 267.144531 128.914062 251.816406 135.386719 228.980469 139.414062 C 206.152344 143.441406 180.140625 144.261719 156.539062 142.328125 C 132.9375 140.398438 111.75 135.714844 98.566406 128.738281 C 94.992188 126.84375 92.195312 124.882812 90.132812 122.882812 C 90.007812 122.738281 89.816406 122.59375 89.558594 122.460938 C 87.972656 121.617188 84.449219 121.332031 81.703125 121.816406 C 79.171875 122.261719 78.171875 123.210938 79.265625 124.011719 C 81.566406 126.226562 84.675781 128.394531 88.628906 130.492188 C 103.394531 138.304688 127.132812 143.550781 153.566406 145.714844 C 180.003906 147.878906 209.148438 146.964844 234.722656 142.453125 C 260.296875 137.941406 277.46875 130.6875 284.546875 122.609375 C 291.632812 114.53125 288.632812 105.625 273.863281 97.8125 "/>
<path style=" stroke:none;fill-rule:evenodd;fill:rgb(89.019608%,58.039218%,23.137255%);fill-opacity:1;" d="M 130.84375 103.015625 L 144.136719 103.015625 L 144.136719 113.925781 L 128.644531 113.925781 L 128.644531 103.015625 Z M 175.644531 92.390625 L 198.882812 92.390625 L 198.882812 113.925781 L 175.644531 113.925781 Z M 120.371094 132.394531 C 135.929688 137.148438 157.421875 140.089844 181.167969 140.089844 C 204.910156 140.089844 226.40625 137.148438 241.964844 132.394531 C 256.203125 128.042969 265.46875 122.175781 266.9375 115.652344 C 266.988281 115.5625 267.015625 115.46875 267.015625 115.375 C 267.015625 114.402344 264.441406 113.617188 261.261719 113.617188 C 258.179688 113.617188 255.664062 114.359375 255.519531 115.289062 C 254.324219 120.988281 246.273438 126.121094 233.851562 129.914062 C 220.371094 134.035156 201.746094 136.582031 181.167969 136.582031 C 160.59375 136.582031 141.960938 134.035156 128.484375 129.914062 C 115 125.792969 106.660156 120.101562 106.660156 113.816406 L 106.65625 113.816406 L 106.65625 103.015625 L 117.164062 103.015625 L 117.164062 117.433594 L 155.609375 117.433594 L 155.609375 99.507812 L 128.644531 99.507812 L 128.644531 83.785156 L 163.875 78.464844 L 163.875 117.433594 L 210.355469 117.433594 L 210.355469 101.585938 L 223.542969 101.585938 L 223.542969 117.433594 L 235.015625 117.433594 L 235.015625 98.078125 L 210.355469 98.078125 L 210.355469 88.882812 L 175.351562 88.882812 L 175.351562 73.164062 L 117.164062 82.070312 L 117.164062 99.507812 L 95.183594 99.507812 L 95.183594 114.398438 L 95.230469 114.398438 C 95.734375 121.421875 105.230469 127.765625 120.371094 132.394531 "/>
<path style=" stroke:none;fill-rule:evenodd;fill:rgb(89.019608%,58.039218%,23.137255%);fill-opacity:1;" d="M 157.148438 127.324219 C 153.992188 127.324219 151.40625 128.113281 151.40625 129.078125 C 151.40625 130.042969 153.992188 130.832031 157.148438 130.832031 L 204.167969 130.832031 C 207.320312 130.832031 209.902344 130.042969 209.902344 129.078125 C 209.902344 128.113281 207.328125 127.324219 204.167969 127.324219 Z M 157.148438 127.324219 "/>
<path style=" stroke:none;fill-rule:evenodd;fill:rgb(89.019608%,58.039218%,23.137255%);fill-opacity:1;" d="M 228.5 122.761719 C 228.5 121.796875 225.917969 121.007812 222.765625 121.007812 L 138.546875 121.007812 C 135.390625 121.007812 132.8125 121.796875 132.8125 122.761719 C 132.8125 123.726562 135.394531 124.515625 138.546875 124.515625 L 222.765625 124.515625 C 225.917969 124.515625 228.5 123.726562 228.5 122.761719 "/>
<path style=" stroke:none;fill-rule:nonzero;fill:rgb(89.019608%,58.039218%,23.137255%);fill-opacity:1;" d="M 362.703125 88.117188 L 336.226562 88.117188 L 336.226562 117.007812 L 351.085938 117.007812 L 351.085938 104.378906 L 362.703125 104.378906 C 371.214844 104.378906 374.457031 105.328125 374.457031 107.96875 L 374.457031 117.007812 L 389.316406 117.007812 L 389.316406 107.96875 C 389.316406 105.535156 386.613281 103.511719 381.886719 102.109375 C 386.613281 100.664062 389.316406 98.601562 389.316406 96.246094 C 389.316406 91.335938 378.238281 88.117188 362.703125 88.117188 Z M 362.703125 99.839844 L 351.085938 99.839844 L 351.085938 92.65625 L 362.703125 92.65625 C 371.214844 92.65625 374.457031 93.605469 374.457031 96.246094 C 374.457031 98.804688 371.214844 99.839844 362.703125 99.839844 Z M 426.460938 88.117188 L 426.460938 117.007812 L 471.039062 117.007812 L 471.039062 112.46875 L 441.320312 112.46875 L 441.320312 104.417969 L 468.335938 104.417969 L 468.335938 99.878906 L 441.320312 99.878906 L 441.320312 92.65625 L 471.039062 92.65625 L 471.039062 88.117188 Z M 536.6875 88.117188 L 510.078125 88.117188 L 510.078125 117.007812 L 536.6875 117.007812 C 552.628906 117.007812 563.164062 113.625 563.164062 108.917969 L 563.164062 96.207031 C 563.164062 91.5 552.628906 88.117188 536.6875 88.117188 Z M 536.6875 112.46875 L 524.9375 112.46875 L 524.9375 92.65625 L 536.6875 92.65625 C 545.199219 92.65625 548.304688 93.648438 548.304688 96.207031 L 548.304688 108.917969 C 548.304688 111.476562 545.199219 112.46875 536.6875 112.46875 Z M 627.460938 88.117188 L 600.851562 88.117188 L 600.851562 117.007812 L 627.460938 117.007812 C 643.402344 117.007812 653.9375 113.625 653.9375 108.917969 L 653.9375 96.207031 C 653.9375 91.5 643.402344 88.117188 627.460938 88.117188 Z M 627.460938 112.46875 L 615.710938 112.46875 L 615.710938 92.65625 L 627.460938 92.65625 C 635.972656 92.65625 639.078125 93.648438 639.078125 96.207031 L 639.078125 108.917969 C 639.078125 111.476562 635.972656 112.46875 627.460938 112.46875 Z M 701.757812 117.007812 L 716.617188 117.007812 L 716.617188 105.039062 L 735.527344 88.117188 L 719.316406 88.117188 L 709.1875 99.671875 L 699.054688 88.117188 L 682.847656 88.117188 L 701.757812 105.039062 Z M 801.988281 95.792969 L 801.988281 97.855469 L 816.847656 97.855469 L 816.847656 95.792969 C 816.847656 90.882812 805.90625 87.703125 790.371094 87.703125 C 774.160156 87.703125 763.757812 91.046875 763.757812 95.792969 C 763.757812 100.332031 776.050781 102.519531 785.371094 104.171875 C 795.367188 105.945312 801.988281 107.0625 801.988281 109.332031 C 801.988281 111.972656 798.878906 112.882812 790.371094 112.882812 C 781.589844 112.882812 778.617188 111.933594 778.617188 109.332031 L 778.617188 107.269531 L 763.757812 107.269531 L 763.757812 109.332031 C 763.757812 114.078125 774.160156 117.421875 790.371094 117.421875 C 805.90625 117.421875 816.847656 114.242188 816.847656 109.332031 C 816.847656 104.335938 802.796875 102.027344 792.9375 100.210938 C 783.75 98.640625 778.617188 97.691406 778.617188 95.792969 C 778.617188 93.191406 781.589844 92.242188 790.371094 92.242188 C 798.878906 92.242188 801.988281 93.152344 801.988281 95.792969 Z M 801.988281 95.792969 "/>
<path style=" stroke:none;fill-rule:nonzero;fill:rgb(89.019608%,58.039218%,23.137255%);fill-opacity:1;" d="M 346.636719 129.09375 L 346.636719 130.414062 L 349.660156 130.414062 L 349.660156 128.828125 C 349.660156 127.058594 346.417969 126.714844 342.3125 126.714844 C 338.246094 126.714844 334.964844 127.058594 334.964844 128.828125 L 334.964844 134.113281 C 334.964844 135.882812 338.246094 136.226562 342.3125 136.226562 C 346.417969 136.226562 349.660156 135.851562 349.660156 134.113281 L 349.660156 133.558594 L 346.636719 133.558594 L 346.636719 133.847656 C 346.636719 135.046875 344.945312 135.300781 342.3125 135.300781 C 339.679688 135.300781 337.992188 135.046875 337.992188 133.847656 L 337.992188 129.09375 C 337.992188 127.890625 339.679688 127.640625 342.3125 127.640625 C 344.945312 127.640625 346.636719 127.890625 346.636719 129.09375 Z M 373.734375 128.828125 L 373.734375 134.113281 C 373.734375 135.882812 377.027344 136.226562 381.082031 136.226562 C 385.1875 136.226562 388.429688 135.851562 388.429688 134.113281 L 388.429688 128.828125 C 388.429688 127.058594 385.1875 126.714844 381.082031 126.714844 C 377.027344 126.714844 373.734375 127.058594 373.734375 128.828125 Z M 376.757812 133.847656 L 376.757812 129.09375 C 376.757812 127.890625 378.449219 127.640625 381.082031 127.640625 C 383.730469 127.640625 385.402344 127.890625 385.402344 129.09375 L 385.402344 133.847656 C 385.402344 135.046875 383.730469 135.300781 381.082031 135.300781 C 378.449219 135.300781 376.757812 135.046875 376.757812 133.847656 Z M 413.59375 126.847656 L 413.59375 136.09375 L 416.621094 136.09375 L 416.621094 129.09375 L 426.035156 136.09375 L 429.0625 136.09375 L 429.0625 126.847656 L 426.035156 126.847656 L 426.035156 133.847656 L 416.621094 126.847656 Z M 461.359375 136.226562 C 465.425781 136.226562 468.707031 135.882812 468.707031 134.113281 L 468.707031 133.847656 C 468.707031 131.722656 457.039062 130.359375 457.039062 129.09375 C 457.039062 127.890625 458.726562 127.640625 461.359375 127.640625 C 463.996094 127.640625 465.683594 127.890625 465.683594 129.09375 L 465.683594 129.621094 L 468.707031 129.621094 L 468.707031 128.828125 C 468.707031 127.058594 465.464844 126.714844 461.359375 126.714844 C 457.292969 126.714844 454.011719 127.058594 454.011719 128.828125 L 454.011719 129.09375 C 454.011719 130.996094 465.683594 132.351562 465.683594 133.847656 C 465.683594 135.046875 463.996094 135.300781 461.359375 135.300781 C 458.726562 135.300781 457.039062 135.046875 457.039062 133.847656 L 457.039062 133.164062 L 454.011719 133.164062 L 454.011719 134.113281 C 454.011719 135.851562 457.253906 136.226562 461.359375 136.226562 Z M 504.882812 126.847656 L 490.617188 126.847656 L 490.617188 127.640625 L 496.238281 127.640625 L 496.238281 136.09375 L 499.265625 136.09375 L 499.265625 127.640625 L 504.882812 127.640625 Z M 527.671875 136.09375 L 530.699219 136.09375 L 530.699219 132.660156 L 533.722656 132.660156 L 539.125 136.09375 L 542.367188 136.09375 L 536.828125 132.550781 C 539.382812 132.351562 541.070312 131.8125 541.070312 130.546875 L 541.070312 128.960938 C 541.070312 127.191406 537.828125 126.847656 533.722656 126.847656 L 527.671875 126.847656 Z M 530.699219 131.867188 L 530.699219 127.640625 L 533.722656 127.640625 C 536.355469 127.640625 538.046875 127.890625 538.046875 129.09375 L 538.046875 130.414062 C 538.046875 131.613281 536.355469 131.867188 533.722656 131.867188 Z M 568.167969 133.847656 L 568.167969 126.847656 L 565.144531 126.847656 L 565.144531 134.113281 C 565.144531 135.882812 568.425781 136.226562 572.492188 136.226562 C 576.597656 136.226562 579.839844 135.882812 579.839844 134.113281 L 579.839844 126.847656 L 576.8125 126.847656 L 576.8125 133.847656 C 576.8125 135.046875 575.125 135.300781 572.492188 135.300781 C 569.855469 135.300781 568.167969 135.046875 568.167969 133.847656 Z M 616.230469 129.09375 L 616.230469 130.414062 L 619.257812 130.414062 L 619.257812 128.828125 C 619.257812 127.058594 616.015625 126.714844 611.90625 126.714844 C 607.855469 126.714844 604.558594 127.058594 604.558594 128.828125 L 604.558594 134.113281 C 604.558594 135.882812 607.855469 136.226562 611.90625 136.226562 C 616.015625 136.226562 619.257812 135.851562 619.257812 134.113281 L 619.257812 133.558594 L 616.230469 133.558594 L 616.230469 133.847656 C 616.230469 135.046875 614.554688 135.300781 611.90625 135.300781 C 609.273438 135.300781 607.585938 135.046875 607.585938 133.847656 L 607.585938 129.09375 C 607.585938 127.890625 609.273438 127.640625 611.90625 127.640625 C 614.554688 127.640625 616.230469 127.890625 616.230469 129.09375 Z M 655.230469 126.847656 L 640.964844 126.847656 L 640.964844 127.640625 L 646.582031 127.640625 L 646.582031 136.09375 L 649.609375 136.09375 L 649.609375 127.640625 L 655.230469 127.640625 Z M 683.621094 126.847656 L 676.707031 126.847656 L 676.707031 127.640625 L 678.652344 127.640625 L 678.652344 135.300781 L 676.707031 135.300781 L 676.707031 136.09375 L 683.621094 136.09375 L 683.621094 135.300781 L 681.675781 135.300781 L 681.675781 127.640625 L 683.621094 127.640625 Z M 707.492188 128.828125 L 707.492188 134.113281 C 707.492188 135.882812 710.773438 136.226562 714.839844 136.226562 C 718.945312 136.226562 722.1875 135.851562 722.1875 134.113281 L 722.1875 128.828125 C 722.1875 127.058594 718.945312 126.714844 714.839844 126.714844 C 710.773438 126.714844 707.492188 127.058594 707.492188 128.828125 Z M 710.515625 133.847656 L 710.515625 129.09375 C 710.515625 127.890625 712.191406 127.640625 714.839844 127.640625 C 717.472656 127.640625 719.164062 127.890625 719.164062 129.09375 L 719.164062 133.847656 C 719.164062 135.046875 717.472656 135.300781 714.839844 135.300781 C 712.191406 135.300781 710.515625 135.046875 710.515625 133.847656 Z M 747.339844 126.847656 L 747.339844 136.09375 L 750.367188 136.09375 L 750.367188 129.09375 L 759.792969 136.09375 L 762.820312 136.09375 L 762.820312 126.847656 L 759.792969 126.847656 L 759.792969 133.847656 L 750.367188 126.847656 Z M 795.105469 136.226562 C 799.171875 136.226562 802.453125 135.882812 802.453125 134.113281 L 802.453125 133.847656 C 802.453125 131.722656 790.78125 130.359375 790.78125 129.09375 C 790.78125 127.890625 792.472656 127.640625 795.105469 127.640625 C 797.738281 127.640625 799.425781 127.890625 799.425781 129.09375 L 799.425781 129.621094 L 802.453125 129.621094 L 802.453125 128.828125 C 802.453125 127.058594 799.210938 126.714844 795.105469 126.714844 C 791.039062 126.714844 787.757812 127.058594 787.757812 128.828125 L 787.757812 129.09375 C 787.757812 130.996094 799.425781 132.351562 799.425781 133.847656 C 799.425781 135.046875 797.738281 135.300781 795.105469 135.300781 C 792.472656 135.300781 790.78125 135.046875 790.78125 133.847656 L 790.78125 133.164062 L 787.757812 133.164062 L 787.757812 134.113281 C 787.757812 135.851562 791 136.226562 795.105469 136.226562 Z M 795.105469 136.226562 "/>
</g>
</svg>
