<?xml version="1.0" encoding="UTF-8" standalone="no" ?>
<!DOCTYPE svg PUBLIC "-//W3C//DTD SVG 1.1//EN" "http://www.w3.org/Graphics/SVG/1.1/DTD/svg11.dtd">
<svg xmlns="http://www.w3.org/2000/svg" xmlns:xlink="http://www.w3.org/1999/xlink" version="1.1" width="1280" height="1024" viewBox="0 0 1280 1024" xml:space="preserve">
<desc>Created with Fabric.js 5.3.0</desc>
<defs>
</defs>
<g transform="matrix(1 0 0 1 640 512)" id="background-logo"  >
<rect style="stroke: none; stroke-width: 0; stroke-dasharray: none; stroke-linecap: butt; stroke-dashoffset: 0; stroke-linejoin: miter; stroke-miterlimit: 4; fill: rgb(255,255,255); fill-opacity: 0; fill-rule: nonzero; opacity: 1;"  paint-order="stroke"  x="-640" y="-512" rx="0" ry="0" width="1280" height="1024" />
</g>
<g transform="matrix(1.700949577594059 0 0 1.700949577594059 261.00437500000004 512)" id="logo-logo"  >
<g style=""  paint-order="stroke"   >
		<g transform="matrix(1.1209025527646757 0 0 -1.1209025527646757 0 24.95672365290028)"  >
<path style="stroke: none; stroke-width: 1; stroke-dasharray: none; stroke-linecap: butt; stroke-dashoffset: 0; stroke-linejoin: miter; stroke-miterlimit: 4; fill: rgb(227,148,59); fill-rule: evenodd; opacity: 1;"  paint-order="stroke"  transform=" translate(67.39237052003182, 52.021378634273816)" d="M 0 0 C -2.951 5.108 -6.38 9.767 -10.201 13.955 C -11.489 15.643 -13.866 16.153 -15.75 15.061 C -17.805 13.877 -18.508 11.253 -17.322 9.2 C -17.128999999999998 8.867999999999999 -16.897 8.569999999999999 -16.641 8.309999999999999 C -13.178999999999998 4.539999999999999 -10.076999999999998 0.3329999999999984 -7.409999999999998 -4.283000000000001 C 2.421000000000001 -21.312 4.422000000000002 -40.719 -0.29499999999999815 -58.322 C -5.011999999999998 -75.928 -16.447 -91.732 -33.479 -101.566 C -50.507999999999996 -111.4 -69.912 -113.396 -87.519 -108.679 C -105.123 -103.964 -120.927 -92.529 -130.761 -75.499 C -133.428 -70.881 -135.516 -66.091 -137.053 -61.208 C -137.147 -60.854 -137.289 -60.504999999999995 -137.482 -60.173 C -138.665 -58.120000000000005 -141.292 -57.417 -143.342 -58.603 C -145.23100000000002 -59.693000000000005 -145.977 -62.005 -145.15900000000002 -63.966 C -143.44400000000002 -69.368 -141.12300000000002 -74.667 -138.174 -79.779 C -127.16000000000001 -98.856 -109.45400000000001 -111.663 -89.73500000000001 -116.949 C -70.01400000000001 -122.232 -48.274000000000015 -119.994 -29.197000000000017 -108.979 C -10.12 -97.965 2.689 -80.258 7.97 -60.538 C 13.256 -40.816 11.018 -19.08 0 0" stroke-linecap="round" />
</g>
		<g transform="matrix(1.1209025527646757 0 0 -1.1209025527646757 -2.022925881145909 -9.228986813440855)"  >
<path style="stroke: none; stroke-width: 1; stroke-dasharray: none; stroke-linecap: butt; stroke-dashoffset: 0; stroke-linejoin: miter; stroke-miterlimit: 4; fill: rgb(227,148,59); fill-rule: evenodd; opacity: 1;"  paint-order="stroke"  transform=" translate(-37.4875, 8.817999999999998)" d="M 0 0 L 5.573 0 L 9.914 0 L 9.914 -26.636 L -1.642 -26.636 L -1.642 -26.394 L -1.642 -7.023999999999997 L -1.642 0 Z M 33.418 25.938 L 50.752 25.938 L 50.752 12.05 L 50.752 7.768 L 50.752 -7.518 L 50.752 -26.636 L 33.418 -26.636 Z M -7.813 -71.72 C 3.793 -83.328 19.826 -90.508 37.54 -90.508 C 55.248999999999995 -90.508 71.283 -83.328 82.89099999999999 -71.72 C 93.511 -61.101 100.42299999999999 -46.778 101.51799999999999 -30.853 C 101.55599999999998 -30.630000000000003 101.576 -30.403000000000002 101.576 -30.169 C 101.576 -27.8 99.65499999999999 -25.879 97.28299999999999 -25.879 C 94.98599999999999 -25.879 93.10799999999999 -27.69 93.00099999999999 -29.962000000000003 C 92.11 -43.877 86.105 -56.403 76.838 -65.67 C 66.781 -75.726 52.888 -81.947 37.54 -81.947 C 22.192 -81.947 8.293 -75.726 -1.759999999999998 -65.67 C -11.819999999999999 -55.611000000000004 -18.038999999999998 -41.717 -18.038999999999998 -26.370000000000005 L -18.041999999999998 -26.370000000000005 L -18.041999999999998 -24.344 L -18.041999999999998 0 L -10.203999999999997 0 L -10.203999999999997 -30.676 L -10.203999999999997 -35.195 L -9.986999999999997 -35.195 L -5.923999999999997 -35.195 L -1.6419999999999968 -35.195 L 14.196000000000002 -35.195 L 18.473000000000003 -35.195 L 18.473000000000003 -30.916 L 18.473000000000003 4.28 L 18.473000000000003 8.56 L 14.196 8.56 L 5.573 8.56 L 0 8.56 L -1.642 8.56 L -1.642 46.951 L 24.64 59.935 L 24.64 -7.024 L 24.64 -35.195 L 24.854 -35.195 L 29.136 -35.195 L 33.199 -35.195 L 43.626 -35.195 L 50.751999999999995 -35.195 L 55.028999999999996 -35.195 L 59.312 -35.195 L 59.312 -30.917 L 59.312 -26.636000000000003 L 59.312 -9.919000000000004 L 59.312 3.490999999999996 L 69.14699999999999 3.490999999999996 L 69.14699999999999 -9.919000000000004 L 69.14699999999999 -26.636000000000003 L 69.14699999999999 -35.195 L 73.42999999999999 -35.195 L 77.707 -35.195 L 77.707 -30.917 L 77.707 7.768000000000001 L 77.707 12.05 L 73.43 12.05 L 59.312 12.05 L 59.312 30.218 L 59.312 34.498 L 55.029 34.498 L 33.199 34.498 L 33.199 72.872 L -10.204 51.13 L -10.204 8.56 L -22.321 8.56 L -26.601000000000003 8.56 L -26.601000000000003 4.28 L -26.601000000000003 -27.794 L -26.565 -27.794 C -26.19 -44.936 -19.108 -60.426 -7.813000000000002 -71.72" stroke-linecap="round" />
</g>
		<g transform="matrix(1.1209025527646757 0 0 -1.1209025527646757 -2.394392987132221 52.20409521542214)"  >
<path style="stroke: none; stroke-width: 1; stroke-dasharray: none; stroke-linecap: butt; stroke-dashoffset: 0; stroke-linejoin: miter; stroke-miterlimit: 4; fill: rgb(227,148,59); fill-rule: evenodd; opacity: 1;"  paint-order="stroke"  transform=" translate(-17.534, 4.281499999999999)" d="M 0 0 C -2.356 0 -4.283 -1.927 -4.283 -4.279 C -4.283 -6.636 -2.3560000000000003 -8.562999999999999 0 -8.562999999999999 L 35.074 -8.562999999999999 C 37.424 -8.562999999999999 39.351 -6.635999999999999 39.351 -4.278999999999999 C 39.351 -1.927 37.43 0 35.074 0 Z" stroke-linecap="round" />
</g>
		<g transform="matrix(1.1209025527646757 0 0 -1.1209025527646757 -2.3942808968769214 34.92168338613058)"  >
<path style="stroke: none; stroke-width: 1; stroke-dasharray: none; stroke-linecap: butt; stroke-dashoffset: 0; stroke-linejoin: miter; stroke-miterlimit: 4; fill: rgb(227,148,59); fill-rule: evenodd; opacity: 1;"  paint-order="stroke"  transform=" translate(35.6885, -0.002000000000000668)" d="M 0 0 C 0 2.354 -1.926 4.283 -4.276 4.283 L -67.098 4.283 C -69.453 4.283 -71.377 2.354 -71.377 0 C -71.377 -2.354 -69.451 -4.279 -67.098 -4.279 L -4.276 -4.279 C -1.926 -4.279 0 -2.354 0 0" stroke-linecap="round" />
</g>
</g>
</g>
<g transform="matrix(1.9211538461538462 0 0 1.9211538461538462 819.9640865384615 477.3818071036321)" id="text-logo"  >
<g style=""  paint-order="stroke"   >
		<g transform="matrix(1 0 0 1 0 0)" id="text-logo-path-0"  >
<path style="stroke: none; stroke-width: 0; stroke-dasharray: none; stroke-linecap: butt; stroke-dashoffset: 0; stroke-linejoin: miter; stroke-miterlimit: 4; fill: rgb(227,148,59); fill-rule: nonzero; opacity: 1;"  paint-order="stroke"  transform=" translate(-181.9, 35)" d="M 23.6 -70 L 4 -70 L 4 0 L 15 0 L 15 -30.6 L 23.6 -30.6 C 29.9 -30.6 32.3 -28.3 32.3 -21.9 L 32.3 0 L 43.3 0 L 43.3 -21.9 C 43.3 -27.8 41.3 -32.7 37.8 -36.1 C 41.3 -39.6 43.3 -44.6 43.3 -50.3 C 43.3 -62.2 35.1 -70 23.6 -70 Z M 23.6 -41.6 L 15 -41.6 L 15 -59 L 23.6 -59 C 29.9 -59 32.3 -56.7 32.3 -50.3 C 32.3 -44.1 29.9 -41.6 23.6 -41.6 Z M 70.8 -70 L 70.8 0 L 103.8 0 L 103.8 -11 L 81.8 -11 L 81.8 -30.5 L 101.8 -30.5 L 101.8 -41.5 L 81.8 -41.5 L 81.8 -59 L 103.8 -59 L 103.8 -70 Z M 152.4 -70 L 132.7 -70 L 132.7 0 L 152.4 0 C 164.2 0 172 -8.2 172 -19.6 L 172 -50.4 C 172 -61.8 164.2 -70 152.4 -70 Z M 152.4 -11 L 143.7 -11 L 143.7 -59 L 152.4 -59 C 158.7 -59 161 -56.6 161 -50.4 L 161 -19.6 C 161 -13.4 158.7 -11 152.4 -11 Z M 219.6 -70 L 199.9 -70 L 199.9 0 L 219.6 0 C 231.4 0 239.2 -8.2 239.2 -19.6 L 239.2 -50.4 C 239.2 -61.8 231.4 -70 219.6 -70 Z M 219.6 -11 L 210.9 -11 L 210.9 -59 L 219.6 -59 C 225.9 -59 228.2 -56.6 228.2 -50.4 L 228.2 -19.6 C 228.2 -13.4 225.9 -11 219.6 -11 Z M 274.6 0 L 285.6 0 L 285.6 -29 L 299.6 -70 L 287.6 -70 L 280.1 -42 L 272.6 -70 L 260.6 -70 L 274.6 -29 Z M 348.8 -51.4 L 348.8 -46.4 L 359.8 -46.4 L 359.8 -51.4 C 359.8 -63.3 351.7 -71 340.2 -71 C 328.2 -71 320.5 -62.9 320.5 -51.4 C 320.5 -40.4 329.6 -35.1 336.5 -31.1 C 343.9 -26.8 348.8 -24.1 348.8 -18.6 C 348.8 -12.2 346.5 -10 340.2 -10 C 333.7 -10 331.5 -12.3 331.5 -18.6 L 331.5 -23.6 L 320.5 -23.6 L 320.5 -18.6 C 320.5 -7.1 328.2 1 340.2 1 C 351.7 1 359.8 -6.7 359.8 -18.6 C 359.8 -30.7 349.4 -36.3 342.1 -40.7 C 335.3 -44.5 331.5 -46.8 331.5 -51.4 C 331.5 -57.7 333.7 -60 340.2 -60 C 346.5 -60 348.8 -57.8 348.8 -51.4 Z" stroke-linecap="round" />
</g>
</g>
</g>
<g transform="matrix(1.9211538461538462 0 0 1.9211538461538462 808.8307347538437 611.9331486484341)" id="tagline-d56ebb2f-47b2-4477-8e87-adbf18e56344-logo"  >
<g style=""  paint-order="stroke"   >
		<g transform="matrix(1 0 0 1 0 0)" id="tagline-d56ebb2f-47b2-4477-8e87-adbf18e56344-logo-path-0"  >
<path style="stroke: none; stroke-width: 0; stroke-dasharray: none; stroke-linecap: butt; stroke-dashoffset: 0; stroke-linejoin: miter; stroke-miterlimit: 4; fill: rgb(227,148,59); fill-rule: nonzero; opacity: 1;"  paint-order="stroke"  transform=" translate(-175.76, 11.2)" d="M 11.36 -16.96 L 11.36 -13.76 L 13.6 -13.76 L 13.6 -17.6 C 13.6 -21.89 11.2 -22.72 8.16 -22.72 C 5.15 -22.72 2.72 -21.89 2.72 -17.6 L 2.72 -4.8 C 2.72 -0.51 5.15 0.32 8.16 0.32 C 11.2 0.32 13.6 -0.58 13.6 -4.8 L 13.6 -6.14 L 11.36 -6.14 L 11.36 -5.44 C 11.36 -2.53 10.11 -1.92 8.16 -1.92 C 6.21 -1.92 4.96 -2.53 4.96 -5.44 L 4.96 -16.96 C 4.96 -19.87 6.21 -20.48 8.16 -20.48 C 10.11 -20.48 11.36 -19.87 11.36 -16.96 Z M 31.42 -17.6 L 31.42 -4.8 C 31.42 -0.51 33.86 0.32 36.86 0.32 C 39.9 0.32 42.3 -0.58 42.3 -4.8 L 42.3 -17.6 C 42.3 -21.89 39.9 -22.72 36.86 -22.72 C 33.86 -22.72 31.42 -21.89 31.42 -17.6 Z M 33.66 -5.44 L 33.66 -16.96 C 33.66 -19.87 34.91 -20.48 36.86 -20.48 C 38.82 -20.48 40.06 -19.87 40.06 -16.96 L 40.06 -5.44 C 40.06 -2.53 38.82 -1.92 36.86 -1.92 C 34.91 -1.92 33.66 -2.53 33.66 -5.44 Z M 60.93 -22.4 L 60.93 0 L 63.17 0 L 63.17 -16.96 L 70.14 0 L 72.38 0 L 72.38 -22.4 L 70.14 -22.4 L 70.14 -5.44 L 63.17 -22.4 Z M 96.29 0.32 C 99.3 0.32 101.73 -0.51 101.73 -4.8 L 101.73 -5.44 C 101.73 -10.59 93.09 -13.89 93.09 -16.96 C 93.09 -19.87 94.34 -20.48 96.29 -20.48 C 98.24 -20.48 99.49 -19.87 99.49 -16.96 L 99.49 -15.68 L 101.73 -15.68 L 101.73 -17.6 C 101.73 -21.89 99.33 -22.72 96.29 -22.72 C 93.28 -22.72 90.85 -21.89 90.85 -17.6 L 90.85 -16.96 C 90.85 -12.35 99.49 -9.06 99.49 -5.44 C 99.49 -2.53 98.24 -1.92 96.29 -1.92 C 94.34 -1.92 93.09 -2.53 93.09 -5.44 L 93.09 -7.1 L 90.85 -7.1 L 90.85 -4.8 C 90.85 -0.58 93.25 0.32 96.29 0.32 Z M 128.51 -22.4 L 117.95 -22.4 L 117.95 -20.48 L 122.11 -20.48 L 122.11 0 L 124.35 0 L 124.35 -20.48 L 128.51 -20.48 Z M 145.38 0 L 147.62 0 L 147.62 -8.32 L 149.86 -8.32 L 153.86 0 L 156.26 0 L 152.16 -8.58 C 154.05 -9.06 155.3 -10.37 155.3 -13.44 L 155.3 -17.28 C 155.3 -21.57 152.9 -22.4 149.86 -22.4 L 145.38 -22.4 Z M 147.62 -10.24 L 147.62 -20.48 L 149.86 -20.48 C 151.81 -20.48 153.06 -19.87 153.06 -16.96 L 153.06 -13.76 C 153.06 -10.85 151.81 -10.24 149.86 -10.24 Z M 175.36 -5.44 L 175.36 -22.4 L 173.12 -22.4 L 173.12 -4.8 C 173.12 -0.51 175.55 0.32 178.56 0.32 C 181.6 0.32 184 -0.51 184 -4.8 L 184 -22.4 L 181.76 -22.4 L 181.76 -5.44 C 181.76 -2.53 180.51 -1.92 178.56 -1.92 C 176.61 -1.92 175.36 -2.53 175.36 -5.44 Z M 210.94 -16.96 L 210.94 -13.76 L 213.18 -13.76 L 213.18 -17.6 C 213.18 -21.89 210.78 -22.72 207.74 -22.72 C 204.74 -22.72 202.3 -21.89 202.3 -17.6 L 202.3 -4.8 C 202.3 -0.51 204.74 0.32 207.74 0.32 C 210.78 0.32 213.18 -0.58 213.18 -4.8 L 213.18 -6.14 L 210.94 -6.14 L 210.94 -5.44 C 210.94 -2.53 209.7 -1.92 207.74 -1.92 C 205.79 -1.92 204.54 -2.53 204.54 -5.44 L 204.54 -16.96 C 204.54 -19.87 205.79 -20.48 207.74 -20.48 C 209.7 -20.48 210.94 -19.87 210.94 -16.96 Z M 239.81 -22.4 L 229.25 -22.4 L 229.25 -20.48 L 233.41 -20.48 L 233.41 0 L 235.65 0 L 235.65 -20.48 L 239.81 -20.48 Z M 260.83 -22.4 L 255.71 -22.4 L 255.71 -20.48 L 257.15 -20.48 L 257.15 -1.92 L 255.71 -1.92 L 255.71 0 L 260.83 0 L 260.83 -1.92 L 259.39 -1.92 L 259.39 -20.48 L 260.83 -20.48 Z M 278.5 -17.6 L 278.5 -4.8 C 278.5 -0.51 280.93 0.32 283.94 0.32 C 286.98 0.32 289.38 -0.58 289.38 -4.8 L 289.38 -17.6 C 289.38 -21.89 286.98 -22.72 283.94 -22.72 C 280.93 -22.72 278.5 -21.89 278.5 -17.6 Z M 280.74 -5.44 L 280.74 -16.96 C 280.74 -19.87 281.98 -20.48 283.94 -20.48 C 285.89 -20.48 287.14 -19.87 287.14 -16.96 L 287.14 -5.44 C 287.14 -2.53 285.89 -1.92 283.94 -1.92 C 281.98 -1.92 280.74 -2.53 280.74 -5.44 Z M 308 -22.4 L 308 0 L 310.24 0 L 310.24 -16.96 L 317.22 0 L 319.46 0 L 319.46 -22.4 L 317.22 -22.4 L 317.22 -5.44 L 310.24 -22.4 Z M 343.36 0.32 C 346.37 0.32 348.8 -0.51 348.8 -4.8 L 348.8 -5.44 C 348.8 -10.59 340.16 -13.89 340.16 -16.96 C 340.16 -19.87 341.41 -20.48 343.36 -20.48 C 345.31 -20.48 346.56 -19.87 346.56 -16.96 L 346.56 -15.68 L 348.8 -15.68 L 348.8 -17.6 C 348.8 -21.89 346.4 -22.72 343.36 -22.72 C 340.35 -22.72 337.92 -21.89 337.92 -17.6 L 337.92 -16.96 C 337.92 -12.35 346.56 -9.06 346.56 -5.44 C 346.56 -2.53 345.31 -1.92 343.36 -1.92 C 341.41 -1.92 340.16 -2.53 340.16 -5.44 L 340.16 -7.1 L 337.92 -7.1 L 337.92 -4.8 C 337.92 -0.58 340.32 0.32 343.36 0.32 Z" stroke-linecap="round" />
</g>
</g>
</g>
</svg>